 <svg version="1.0" xmlns="http://www.w3.org/2000/svg" width="700.000000pt" height="700.000000pt" viewBox="0 0 700.000000 700.000000" preserveAspectRatio="xMidYMid meet">
<metadata>
Created by potrace 1.12, written by Peter Selinger 2001-2015
</metadata>
<g transform="translate(0.000000,700.000000) scale(0.100000,-0.100000)" fill="#000000" stroke="none">
<path d="M2355 5936 c-71 -34 -2304 -2268 -2334 -2336 -27 -59 -27 -141 0
-200 15 -35 269 -294 1152 -1178 688 -689 1147 -1141 1171 -1154 49 -25 141
-34 189 -19 134 44 206 187 162 322 -16 51 -60 97 -929 966 l-911 913 2966 0
c2600 0 2972 2 3009 15 215 76 228 369 20 464 -32 15 -313 16 -3015 21 l-2980
5 907 910 c498 501 913 925 923 943 58 116 7 261 -114 324 -70 37 -145 38
-216 4z"></path>
</g>
</svg>