 <svg version="1.0" xmlns="http://www.w3.org/2000/svg" width="700.000000pt" height="700.000000pt" viewBox="0 0 700.000000 700.000000" preserveAspectRatio="xMidYMid meet">
<metadata>
Created by potrace 1.12, written by Peter Selinger 2001-2015
</metadata>
<g transform="translate(0.000000,700.000000) scale(0.100000,-0.100000)" fill="#000000" stroke="none">
<path d="M4435 5936 c-27 -13 -62 -36 -77 -52 -67 -71 -87 -187 -47 -274 15
-35 224 -249 927 -952 l907 -908 -2975 0 -2975 0 -50 -24 c-200 -94 -192 -369
13 -457 42 -18 140 -19 3008 -19 1630 0 2964 -3 2964 -8 0 -4 -403 -410 -896
-902 -972 -971 -944 -939 -944 -1050 0 -64 32 -141 76 -182 71 -67 187 -87
274 -47 66 29 2299 2261 2335 2333 32 63 33 142 4 206 -29 66 -2261 2299
-2333 2335 -66 33 -143 34 -211 1z"></path>
</g>
</svg>